<?xml version="1.0" encoding="UTF-8"?>
<svg width="800" height="600" viewBox="0 0 800 600" fill="none" xmlns="http://www.w3.org/2000/svg">
  <!-- Insights Dashboard -->
  <rect x="100" y="100" width="600" height="400" rx="8" fill="#FFFFFF" stroke="#E0E0E0" stroke-width="2"/>
  
  <!-- Data Cards -->
  <rect x="150" y="150" width="200" height="120" rx="6" fill="#f5f5f5"/>
  <rect x="400" y="150" width="200" height="120" rx="6" fill="#f5f5f5"/>
  <rect x="150" y="300" width="450" height="150" rx="6" fill="#f5f5f5"/>
  
  <!-- Chart Elements -->
  <path d="M180 200 C 250 160, 300 240, 330 200" stroke="#2196f3" stroke-width="2" fill="none"/>
  <path d="M430 200 C 500 160, 550 240, 580 200" stroke="#2196f3" stroke-width="2" fill="none"/>
  
  <!-- Progress Bars -->
  <rect x="180" y="350" width="300" height="8" rx="4" fill="#e3f2fd"/>
  <rect x="180" y="350" width="200" height="8" rx="4" fill="#2196f3"/>
  <rect x="180" y="380" width="300" height="8" rx="4" fill="#e3f2fd"/>
  <rect x="180" y="380" width="250" height="8" rx="4" fill="#2196f3"/>
  <rect x="180" y="410" width="300" height="8" rx="4" fill="#e3f2fd"/>
  <rect x="180" y="410" width="150" height="8" rx="4" fill="#2196f3"/>
</svg>
