<?xml version="1.0" encoding="UTF-8"?>
<svg width="800px" height="600px" viewBox="0 0 800 600" version="1.1" xmlns="http://www.w3.org/2000/svg">
    <g stroke="none" stroke-width="1" fill="none" fill-rule="evenodd">
        <!-- Data Insights Illustration -->
        <!-- Dashboard Background -->
        <rect fill="#F5F7FA" x="100" y="50" width="600" height="400" rx="8"/>
        
        <!-- Chart Area -->
        <g transform="translate(150,100)">
            <!-- Pie Chart -->
            <circle fill="#6366F1" cx="150" cy="150" r="80"/>
            <path d="M150,150 L150,70 A80,80 0 0,1 221,198 Z" fill="#4F46E5"/>
            <path d="M150,150 L221,198 A80,80 0 0,1 79,198 Z" fill="#7C3AED"/>
            
            <!-- Bar Chart -->
            <rect fill="#6366F1" x="300" y="100" width="30" height="150"/>
            <rect fill="#4F46E5" x="350" y="50" width="30" height="200"/>
            <rect fill="#7C3AED" x="400" y="120" width="30" height="130"/>
            
            <!-- Lines -->
            <line x1="300" y1="250" x2="430" y2="250" stroke="#94A3B8" stroke-width="2"/>
            <line x1="300" y1="50" x2="300" y2="250" stroke="#94A3B8" stroke-width="2"/>
        </g>
        
        <!-- Decorative Elements -->
        <g transform="translate(100,500)">
            <circle fill="#6366F1" cx="20" cy="20" r="5"/>
            <circle fill="#4F46E5" cx="40" cy="20" r="5"/>
            <circle fill="#7C3AED" cx="60" cy="20" r="5"/>
        </g>
    </g>
</svg>
